<?xml version="1.0" encoding="iso-8859-1"?>
<!-- Generator: Adobe Illustrator 19.0.0, SVG Export Plug-In . SVG Version: 6.00 Build 0)  -->
<svg version="1.1" id="Capa_1" xmlns="http://www.w3.org/2000/svg" xmlns:xlink="http://www.w3.org/1999/xlink" x="0px" y="0px"
	 viewBox="0 0 512 512" style="enable-background:new 0 0 512 512;" xml:space="preserve">
<g>
	<g>
		<path d="M335,88.587h-82.505c-11.028,0-20,8.972-20,20c0,11.028,8.972,20,20,20H335c11.028,0,20-8.972,20-20
			C355,97.559,346.028,88.587,335,88.587z M335,113.587h-82.505c-2.757,0-5-2.243-5-5c0-2.757,2.243-5,5-5H335c2.757,0,5,2.243,5,5
			C340,111.344,337.757,113.587,335,113.587z"/>
	</g>
</g>
<g>
	<g>
		<path d="M403.91,186.887c-2.587-3.235-7.308-3.759-10.542-1.171c-3.234,2.587-3.759,7.307-1.171,10.542
			c18.029,22.538,27.559,49.733,27.559,78.644c0,69.481-56.527,126.008-126.008,126.008S167.74,344.383,167.74,274.902
			s56.527-126.008,126.008-126.008c28.89,0,56.068,9.517,78.599,27.522c3.235,2.585,7.955,2.059,10.541-1.176
			c2.586-3.236,2.059-7.956-1.177-10.542c-25.217-20.153-55.634-30.805-87.963-30.805c-77.752,0-141.008,63.256-141.008,141.008
			s63.255,141.008,141.008,141.008c77.752,0,141.008-63.256,141.008-141.008C434.756,242.547,424.089,212.113,403.91,186.887z"/>
	</g>
</g>
<g>
	<g>
		<path d="M293.748,169.812c-57.946,0-105.089,47.143-105.089,105.089S235.801,379.99,293.748,379.99
			c57.947,0,105.089-47.143,105.089-105.089S351.694,169.812,293.748,169.812z M293.748,364.99
			c-49.675,0-90.089-40.414-90.089-90.089s40.414-90.089,90.089-90.089s90.089,40.414,90.089,90.089
			C383.837,324.577,343.423,364.99,293.748,364.99z"/>
	</g>
</g>
<g>
	<g>
		<path d="M237.188,251.084c-4.142,0-7.5,3.358-7.5,7.5v10.561c0,4.143,3.358,7.5,7.5,7.5c4.142,0,7.5-3.357,7.5-7.5v-10.561
			C244.688,254.442,241.33,251.084,237.188,251.084z"/>
	</g>
</g>
<g>
	<g>
		<path d="M350.308,251.084c-4.142,0-7.5,3.358-7.5,7.5v10.561c0,4.143,3.358,7.5,7.5,7.5c4.142,0,7.5-3.357,7.5-7.5v-10.561
			C357.808,254.442,354.45,251.084,350.308,251.084z"/>
	</g>
</g>
<g>
	<g>
		<path d="M310.968,253.004h-34.44c-4.142,0-7.5,3.358-7.5,7.5v11.46c0,13.631,11.089,24.72,24.72,24.72
			c13.631,0,24.72-11.089,24.72-24.72v-11.46C318.468,256.363,315.11,253.004,310.968,253.004z M303.468,271.964
			c0,5.36-4.36,9.72-9.72,9.72c-5.36,0-9.72-4.36-9.72-9.72v-3.96h19.44V271.964z"/>
	</g>
</g>
<g>
	<g>
		<path d="M136.397,158.931c-13.916,0-25.238,11.322-25.238,25.238c0,13.917,11.322,25.239,25.238,25.239
			c13.917,0,25.238-11.322,25.238-25.239C161.635,170.253,150.313,158.931,136.397,158.931z M136.397,194.408
			c-5.645,0-10.238-4.593-10.238-10.239s4.593-10.238,10.238-10.238c5.646,0,10.238,4.593,10.238,10.238
			S142.042,194.408,136.397,194.408z"/>
	</g>
</g>
<g>
	<g>
		<path d="M469.102,130.496v-13.89c0-9.3-7.566-16.867-16.867-16.867h-26.27c-9.301,0-16.867,7.566-16.867,16.867v11.36
			c-3.58-2.021-6.288-5.464-7.306-9.698l-4.296-17.862c-4.796-19.939-22.469-33.865-42.977-33.865H232.977
			c-20.508,0-38.181,13.926-42.977,33.865l-4.297,17.862c-1.652,6.87-7.741,11.667-14.806,11.667h-14.801v-13.329
			c0-9.3-7.566-16.867-16.867-16.867H64.696c-9.3,0-16.867,7.566-16.867,16.867V130C21.229,131.342,0,153.404,0,180.333v63.834
			c0,4.142,3.358,7.5,7.5,7.5s7.5-3.358,7.5-7.5v-38.232l38.138,10.858c8.741,2.489,15.34,9.525,17.507,18.076
			c0.5,1.973,0.764,4.027,0.764,6.125v93.409c0,11.186-7.514,21.137-18.271,24.2L15,369.459v-95.293c0-4.142-3.358-7.5-7.5-7.5
			s-7.5,3.358-7.5,7.5v120.895c0,27.79,22.609,50.398,50.398,50.398h411.204c27.79,0,50.398-22.608,50.398-50.398V180.333
			C512,155.092,493.347,134.129,469.102,130.496z M424.098,116.606c0-1.029,0.837-1.867,1.867-1.867h26.27
			c1.029,0,1.867,0.837,1.867,1.867v13.329h-30.004V116.606z M62.83,116.606c0-1.029,0.837-1.867,1.867-1.867h74.533
			c1.029,0,1.867,0.837,1.867,1.867v13.329H62.83V116.606z M497,395.062c0,19.519-15.879,35.398-35.398,35.398H50.398
			C30.88,430.459,15,414.58,15,395.061v-10.005l42.245-12.028c17.172-4.889,29.164-20.773,29.164-38.627v-93.409
			c0-17.854-11.993-33.737-29.164-38.627L15,190.338v-10.005c0-19.519,15.88-35.398,35.398-35.398h120.499
			c14.025,0,26.111-9.523,29.39-23.159l4.297-17.862c3.168-13.173,14.844-22.373,28.393-22.373h121.542
			c13.548,0,25.224,9.2,28.393,22.373l4.296,17.862c3.28,13.635,15.366,23.159,29.39,23.159h45.004
			c19.519,0,35.398,15.879,35.398,35.398V395.062z"/>
	</g>
</g>
<g>
</g>
<g>
</g>
<g>
</g>
<g>
</g>
<g>
</g>
<g>
</g>
<g>
</g>
<g>
</g>
<g>
</g>
<g>
</g>
<g>
</g>
<g>
</g>
<g>
</g>
<g>
</g>
<g>
</g>
</svg>
