<?xml version="1.0"?>
<svg xmlns="http://www.w3.org/2000/svg" viewBox="0 0 512 512" width="512" height="512"><g id="VDO"><path d="M500.206,137.2a8,8,0,0,0-7.784-.35L408,179.056V144a40.045,40.045,0,0,0-40-40H48A40.045,40.045,0,0,0,8,144V368a40.045,40.045,0,0,0,40,40H368a40.045,40.045,0,0,0,40-40V332.944l84.422,42.211A8,8,0,0,0,504,368V144A8,8,0,0,0,500.206,137.2ZM392,368a24.027,24.027,0,0,1-24,24H48a24.027,24.027,0,0,1-24-24V144a24.027,24.027,0,0,1,24-24H368a24.027,24.027,0,0,1,24,24Zm96-12.944-80-40V196.944l80-40Z"/><path d="M267.578,248.845l-112-56A8,8,0,0,0,144,200V312a8,8,0,0,0,11.578,7.155l112-56a8,8,0,0,0,0-14.31ZM160,299.056V212.944L246.111,256Z"/><path d="M120,360H48a8,8,0,0,0,0,16h72a8,8,0,0,0,0-16Z"/><path d="M152,360h-8a8,8,0,0,0,0,16h8a8,8,0,0,0,0-16Z"/></g></svg>
