<svg xmlns="http://www.w3.org/2000/svg" width="970" height="737" viewBox="0 0 970 737">
  <g id="Group_12" data-name="Group 12" transform="translate(-42 -33)">
    <g id="Group_10" data-name="Group 10" transform="translate(-430 -169)">
      <text id="OM" transform="translate(1019 675)" fill="#ff8a00" font-size="477" font-family="CenturyGothic-Bold, Century Gothic" font-weight="700" letter-spacing="0.03em"><tspan x="-422.084" y="0">OM</tspan></text>
      <path id="Subtraction_9" data-name="Subtraction 9" d="M-4877.9-1732a83,83,0,0,1-17.15-1.788,82.654,82.654,0,0,1-15.975-5.128,84.274,84.274,0,0,1-14.455-8.114,86.338,86.338,0,0,1-12.594-10.746,88.079,88.079,0,0,1-10.392-13.024,88.988,88.988,0,0,1-7.846-14.948,89.748,89.748,0,0,1-4.959-16.519A91.556,91.556,0,0,1-4963-1820a91.553,91.553,0,0,1,1.729-17.735,89.744,89.744,0,0,1,4.959-16.518,88.955,88.955,0,0,1,7.846-14.948,88.048,88.048,0,0,1,10.392-13.024,86.419,86.419,0,0,1,12.594-10.746,84.273,84.273,0,0,1,14.455-8.113,82.652,82.652,0,0,1,15.975-5.128A83,83,0,0,1-4877.9-1908a67.217,67.217,0,0,1,9.691.7,59.789,59.789,0,0,1,10.8,2.6,48.7,48.7,0,0,1,21.028,13.923,54.733,54.733,0,0,1,5.443,9.531,56.849,56.849,0,0,1,3.9,12.486c2,10.523,1.147,21.8-2.55,33.513-7.069,20.786-10.2,31.2-10.48,43.671.7,5.138,2.894,7.636,6.709,7.636,5.38,0,13.065-5.053,19.846-9.79.923-.645,1.866-1.31,2.7-1.9,6-4.236,11.188-7.893,13.918-7.893a1.7,1.7,0,0,1,1.564.771c.645,1.015.561,3.021-.257,6.134a101.962,101.962,0,0,1-5.192,13.868,87.964,87.964,0,0,1-12.936,20.556,86.317,86.317,0,0,1-17.871,16.043A82.823,82.823,0,0,1-4877.9-1732Zm8.692-61.379a18.687,18.687,0,0,0-18.468,18.857,18.687,18.687,0,0,0,18.468,18.857,18.687,18.687,0,0,0,18.468-18.857A18.687,18.687,0,0,0-4869.208-1793.379Z" transform="translate(5678 2325)" fill="#505050"/>
      <path id="Subtraction_7" data-name="Subtraction 7" d="M-4453.091-1372H-4824a140.068,140.068,0,0,1-28.014-2.824,138.348,138.348,0,0,1-26.092-8.1,138.91,138.91,0,0,1-23.611-12.816,140.073,140.073,0,0,1-20.571-16.973,140,140,0,0,1-16.973-20.571,139.021,139.021,0,0,1-12.817-23.612,138.257,138.257,0,0,1-8.1-26.092A139.966,139.966,0,0,1-4963-1511v-220.852a139.986,139.986,0,0,1,2.825-28.014,138.253,138.253,0,0,1,8.1-26.09,139.015,139.015,0,0,1,12.817-23.612,139.972,139.972,0,0,1,16.973-20.57,140.017,140.017,0,0,1,20.571-16.974,139.1,139.1,0,0,1,23.611-12.815,138.335,138.335,0,0,1,26.092-8.1,139.974,139.974,0,0,1,28.014-2.825h52.8V-1891a16.889,16.889,0,0,1,4.98-12.021A16.887,16.887,0,0,1-4754.2-1908h232.394a16.889,16.889,0,0,1,12.021,4.979,16.889,16.889,0,0,1,4.979,12.021v20.148H-4452a139.97,139.97,0,0,1,28.014,2.825,138.329,138.329,0,0,1,26.092,8.1,139.112,139.112,0,0,1,16.155,8.117l-6.332,42.577a95.172,95.172,0,0,0-56.553-18.469h-383.752a96.108,96.108,0,0,0-96,96v220.556a96.109,96.109,0,0,0,96,96h381.7l-6.417,43.148Z" transform="translate(5435 2122)" fill="#505050"/>
      <circle id="Ellipse_6" data-name="Ellipse 6" cx="29.5" cy="29.5" r="29.5" transform="translate(961 329)" fill="#505050"/>
    </g>
    <text id="PHOTO_STUDIO" data-name="PHOTO STUDIO" transform="translate(526 741)" fill="#505050" font-size="130" font-family="CenturyGothic-Bold, Century Gothic" font-weight="700" letter-spacing="0.03em"><tspan x="-477.72" y="0">PHOTO STUDIO</tspan></text>
  </g>
</svg>
