<svg xmlns="http://www.w3.org/2000/svg" width="4605" height="578" viewBox="0 0 4605 578">
  <g id="Group_9" data-name="Group 9" transform="translate(-472 -202)">
    <text id="OM" transform="translate(1019 675)" fill="#ff8a00" font-size="477" font-family="CenturyGothic-Bold, Century Gothic" font-weight="700" letter-spacing="0.03em"><tspan x="-422.084" y="0">OM</tspan></text>
    <path id="Subtraction_9" data-name="Subtraction 9" d="M-4884.988-1746a75.785,75.785,0,0,1-15.722-1.646,75.552,75.552,0,0,1-14.645-4.72,77.166,77.166,0,0,1-13.251-7.468,79.239,79.239,0,0,1-11.545-9.891,81,81,0,0,1-9.526-11.988,82.019,82.019,0,0,1-7.192-13.759,82.835,82.835,0,0,1-4.546-15.2A84.579,84.579,0,0,1-4963-1827a84.575,84.575,0,0,1,1.585-16.324,82.83,82.83,0,0,1,4.546-15.2,81.985,81.985,0,0,1,7.192-13.759,80.971,80.971,0,0,1,9.526-11.988,79.294,79.294,0,0,1,11.545-9.891,77.165,77.165,0,0,1,13.251-7.468,75.558,75.558,0,0,1,14.645-4.72,75.785,75.785,0,0,1,15.722-1.646,61.375,61.375,0,0,1,8.884.642,54.617,54.617,0,0,1,9.9,2.391,44.628,44.628,0,0,1,19.277,12.816,50.427,50.427,0,0,1,4.99,8.772,52.465,52.465,0,0,1,3.579,11.493c1.838,9.686,1.051,20.064-2.337,30.847-6.48,19.132-9.347,28.717-9.607,40.2.641,4.73,2.652,7.029,6.15,7.029,4.932,0,11.977-4.651,18.193-9.011.846-.593,1.71-1.206,2.473-1.746,5.5-3.9,10.256-7.265,12.759-7.265a1.558,1.558,0,0,1,1.434.71c.591.934.515,2.781-.235,5.646a94.085,94.085,0,0,1-4.76,12.765,81.013,81.013,0,0,1-11.858,18.921,79.228,79.228,0,0,1-16.382,14.767A75.706,75.706,0,0,1-4884.988-1746Zm7.968-56.5a17.167,17.167,0,0,0-16.93,17.357,17.167,17.167,0,0,0,16.93,17.357,17.167,17.167,0,0,0,16.93-17.357A17.167,17.167,0,0,0-4877.02-1802.5Z" transform="translate(5685 2332)" fill="#fff"/>
    <path id="Subtraction_7" data-name="Subtraction 7" d="M-4453.091-1372H-4824a140.068,140.068,0,0,1-28.014-2.824,138.348,138.348,0,0,1-26.092-8.1,138.91,138.91,0,0,1-23.611-12.816,140.073,140.073,0,0,1-20.571-16.973,140,140,0,0,1-16.973-20.571,139.021,139.021,0,0,1-12.817-23.612,138.257,138.257,0,0,1-8.1-26.092A139.966,139.966,0,0,1-4963-1511v-220.852a139.986,139.986,0,0,1,2.825-28.014,138.253,138.253,0,0,1,8.1-26.09,139.015,139.015,0,0,1,12.817-23.612,139.972,139.972,0,0,1,16.973-20.57,140.017,140.017,0,0,1,20.571-16.974,139.1,139.1,0,0,1,23.611-12.815,138.335,138.335,0,0,1,26.092-8.1,139.974,139.974,0,0,1,28.014-2.825h52.8V-1891a16.889,16.889,0,0,1,4.98-12.021A16.887,16.887,0,0,1-4754.2-1908h232.394a16.889,16.889,0,0,1,12.021,4.979,16.889,16.889,0,0,1,4.979,12.021v20.148H-4452a139.97,139.97,0,0,1,28.014,2.825,138.329,138.329,0,0,1,26.092,8.1,139.112,139.112,0,0,1,16.155,8.117l-6.332,42.577a95.172,95.172,0,0,0-56.553-18.469h-383.752a96.108,96.108,0,0,0-96,96v220.556a96.109,96.109,0,0,0,96,96h381.7l-6.417,43.148Z" transform="translate(5435 2122)" fill="#fff"/>
    <circle id="Ellipse_6" data-name="Ellipse 6" cx="29.5" cy="29.5" r="29.5" transform="translate(961 329)" fill="#fff"/>
    <text id="PHOTO_STUDIO" data-name="PHOTO STUDIO" transform="translate(3296 670)" fill="#fff" font-size="477" font-family="CenturyGothic, Century Gothic" letter-spacing="0.03em"><tspan x="-1780.114" y="0">PHOTO STUDIO</tspan></text>
  </g>
</svg>
